<svg height="512" viewBox="0 0 58 58" width="512" xmlns="http://www.w3.org/2000/svg"><g id="Page-1" fill="none" fill-rule="evenodd"><g id="066---Contact" fill-rule="nonzero"><path id="Shape" d="m57.05 10.81c-.5544136-.5225244-1.28816-.8124437-2.05-.81l-51-.00001532 6.56 35.62001532.44 2.38h44c1.6568542 0 3-1.3431458 3-3v-32c.0020866-.8304344-.3422083-1.6241247-.95-2.19z" fill="#f0c419"/><path id="Shape" d="m57.06 47.18c-.5572045.5256662-1.2939708.8189421-2.06.82h-44l-.44-2.38 17.68-16.97 2.76 2.55c1.1495122 1.0700719 2.9304878 1.0700719 4.08 0l2.71-2.52z" fill="#f29c1f"/><path id="Shape" d="m57.05 10.81-19.26 17.87-2.71 2.52c-1.1495122 1.0700719-2.9304878 1.0700719-4.08 0l-2.76-2.55-20.14-18.65001532 46.9.00001532c.76184-.0024437 1.4955864.2874756 2.05.81z" fill="#f3d55b"/><path id="Shape" d="m30.3 56.4-1.32.39-1.91.56-1.86.55c-.3964668.1179856-.8166562.1317623-1.22.04l-8.09-1.87c-.4312008-.094124-.8266457-.3091905-1.14-.62-1.89-1.85-8.56-9.01-12.33-21.49s-2.17-22.09-1.61-24.65c.09129943-.42796754.29891863-.82244401.6-1.14l5.74-5.94c.28452167-.29868876.64350778-.5161515 1.04-.63l1.85-.54 1.92-.57 1.32-.39c1.2527234-.3714132 2.5714308.3324914 2.96 1.58l3.4 11.26c.1793631.5994381.1110785 1.2457494-.1895907 1.7944708-.3006693.5487214-.8086539.9541012-1.4104093 1.1255292l-1.32.39-1.91.56v.01l-5.27 1.55c-.39129932.1092656-.69560349.4173736-.8.81-1.00824924 4.2191463-.8317623 8.6347804.51 12.76 1.1775488 4.1906117 3.4768883 7.9801997 6.65 10.96.3097054.2702557.7371858.361048 1.13.24l5.26-1.55 1.92-.56 1.32-.39c1.2531929-.3760826 2.575049.3295027 2.96 1.58l3.4 11.26c.1793631.5994381.1110785 1.2457494-.1895907 1.7944708-.3006693.5487214-.8086539.9541012-1.4104093 1.1255292z" fill="#3b97d3"/><path id="Shape" d="m41 15h-16c-.5522847 0-1-.4477153-1-1s.4477153-1 1-1h16c.5522847 0 1 .4477153 1 1s-.4477153 1-1 1z" fill="#f9eab0"/><path id="Shape" d="m54 37c-.5522847 0-1-.4477153-1-1v-14c0-.5522847.4477153-1 1-1s1 .4477153 1 1v14c0 .5522847-.4477153 1-1 1z" fill="#f3d55b"/><g fill="#2980ba"><path id="Shape" d="m24.23 44.52c-.0940766.0279731-.1918635.041461-.29.04-.4416827.0013127-.8319134-.2872954-.96-.71l-.68-2.25v-.01l1.92-.56.68 2.24c.0777061.2546104.0506869.5296954-.0750725.7643212-.1257594.2346257-.3398783.4094252-.5949275.4856788z"/><path id="Shape" d="m28.98 56.78v.01l-1.91.56-2.73-9c-.1574011-.5301934.1448067-1.0875988.675-1.245.5301934-.1574011 1.0875988.1448067 1.245.675z"/><path id="Shape" d="m16.73 16.25-1.91.56-.68-2.24c-.1216964-.5139002.1771959-1.0338415.6825239-1.1872919s1.0428669.1124962 1.2274761.6072919z"/><path id="Shape" d="m14.02 10.74c-.094934.0237904-.1921705.0372023-.29.04-.4387457-.0008041-.8249602-.2894486-.95-.71l-2.73-9.01 1.92-.57 2.72 9c.0777061.25461039.0506869.5296954-.0750725.7643212-.1257594.2346257-.3398783.4094252-.5949275.4856788z"/></g></g></g></svg>